<svg xmlns="http://www.w3.org/2000/svg" width="512" height="512" viewBox="0 0 512 512" fill="none">
  <circle cx="256" cy="256" r="256" fill="#001971"/>
  <path d="M87.9967 294.39C79.6275 294.39 72.2648 292.936 65.9081 290.027C59.6047 287.119 54.705 282.916 51.2088 277.416C47.7132 271.864 45.9648 265.122 45.9648 257.19C45.9648 248.941 47.8984 241.855 51.7649 235.933C55.6848 229.958 61.035 225.384 67.8149 222.211C74.5954 219.039 82.2756 217.452 90.8572 217.452C94.7766 217.452 98.6965 217.875 102.616 218.721C106.536 219.514 109.847 220.546 112.548 221.815L113.422 241.406L105.397 241.882L100.789 228.477C97.4519 226.838 93.7439 226.018 89.665 226.018C82.5141 226.018 76.9788 228.53 73.0589 233.554C69.1395 238.524 67.1793 245.372 67.1793 254.097C67.1793 260.601 68.2387 266.206 70.3574 270.912C72.5295 275.565 75.4162 279.161 79.018 281.699C82.6204 284.237 86.6192 285.506 91.0157 285.506C93.3997 285.506 95.6775 285.216 97.849 284.634C100.021 283.999 101.928 283.048 103.57 281.779L108.099 269.96L116.839 270.912L113.184 287.965C110.43 289.71 106.774 291.217 102.219 292.486C97.7167 293.756 92.976 294.39 87.9967 294.39Z" fill="white"/>
  <path d="M154.503 294.232C148.57 294.232 143.326 293.042 138.771 290.663C134.216 288.231 130.64 284.899 128.045 280.669C125.502 276.386 124.23 271.468 124.23 265.916C124.23 259.623 125.687 254.282 128.601 249.894C131.514 245.452 135.301 242.068 139.963 239.741C144.677 237.414 149.709 236.251 155.059 236.251C160.727 236.251 165.733 237.467 170.076 239.9C174.42 242.279 177.81 245.61 180.246 249.894C182.683 254.177 183.902 259.094 183.902 264.647C183.902 270.199 182.577 275.222 179.929 279.717C177.333 284.159 173.811 287.702 169.361 290.346C164.912 292.936 159.959 294.232 154.503 294.232ZM155.774 285.983C158.9 285.983 161.31 284.476 163.005 281.462C164.7 278.448 165.547 274.217 165.547 268.771C165.547 261.421 164.382 255.472 162.051 250.925C159.774 246.377 156.754 244.103 152.993 244.103C149.921 244.103 147.458 245.716 145.604 248.942C143.803 252.114 142.902 256.503 142.902 262.108C142.902 268.93 144.121 274.614 146.558 279.162C149.047 283.709 152.119 285.983 155.774 285.983Z" fill="white"/>
  <path d="M212.342 294.232C208.369 294.232 204.952 293.412 202.092 291.773C199.285 290.081 197.112 288.045 195.576 285.666C194.093 283.233 193.352 280.959 193.352 278.844C193.352 272.657 197.271 268.427 205.111 266.154L225.134 260.363V256.001C225.134 253.304 223.889 250.898 221.399 248.783C218.962 246.615 216.208 245.531 213.136 245.531C211.759 245.531 210.779 245.875 210.196 246.562C209.666 247.197 209.349 248.36 209.243 250.052L208.607 258.063C204.317 258.962 200.768 258.83 197.96 257.667C195.206 256.503 193.829 254.573 193.829 251.877C193.829 250.184 194.676 248.492 196.371 246.8C198.119 245.055 200.291 243.442 202.886 241.962C205.482 240.428 208.104 239.159 210.752 238.155C213.454 237.15 215.758 236.515 217.665 236.251C225.346 236.251 231.411 237.97 235.86 241.407C240.363 244.844 242.64 249.497 242.693 255.366L242.296 272.737C242.296 277.179 242.614 280.113 243.249 281.541L251.672 283.048V288.68L243.17 292.249C239.992 293.571 237.29 294.232 235.066 294.232C231.729 294.232 229.371 292.54 227.994 289.155L225.69 283.286L228.392 283.762C222.989 290.742 217.638 294.232 212.342 294.232ZM219.095 282.572C221.373 282.572 223.439 281.673 225.293 279.875V267.581L217.109 269.009C213.136 269.538 211.15 271.494 211.15 274.879C211.15 276.835 211.944 278.606 213.533 280.193C215.123 281.779 216.976 282.572 219.095 282.572Z" fill="white"/>
  <path d="M277.579 294.232C273.924 294.232 270.322 293.835 266.773 293.042C263.277 292.249 260.311 291.218 257.874 289.949L257.238 274.879H265.74L268.441 284.079C271.62 285.983 274.957 286.935 278.453 286.935C280.995 286.935 282.929 286.433 284.253 285.428C285.577 284.37 286.24 282.995 286.24 281.303C286.24 279.4 285.498 277.814 284.015 276.544C282.584 275.222 279.565 273.689 274.957 271.944C268.759 269.67 264.416 267.185 261.926 264.488C259.437 261.738 258.192 258.301 258.192 254.177C258.192 248.942 260.549 244.659 265.263 241.327C270.031 237.943 276.228 236.251 283.856 236.251C286.663 236.251 289.471 236.515 292.278 237.044C295.086 237.573 297.416 238.26 299.27 239.106L300.7 254.018H292.357L289.577 244.897C288.729 244.421 287.669 244.024 286.398 243.707C285.18 243.39 284.041 243.231 282.982 243.231C280.492 243.231 278.479 243.786 276.943 244.897C275.407 246.007 274.639 247.461 274.639 249.259C274.639 251.268 275.566 252.961 277.42 254.335C279.327 255.657 282.77 257.323 287.749 259.332C293.311 261.553 297.284 263.986 299.667 266.629C302.051 269.273 303.243 272.499 303.243 276.306C303.243 281.7 300.859 286.036 296.092 289.314C291.377 292.593 285.206 294.232 277.579 294.232Z" fill="white"/>
  <path d="M354.171 282.414C352.847 286.168 350.49 289.13 347.1 291.297C343.71 293.466 339.922 294.549 335.738 294.549C329.699 294.549 324.773 292.831 320.959 289.394C317.198 285.957 315.318 280.775 315.318 273.848L315.715 245.531H306.816V241.565L329.223 223.957H333.116L332.798 242.2L332.56 272.341C332.56 275.831 333.407 278.316 335.102 279.797C336.85 281.277 339.26 282.017 342.333 282.017C345.458 282.017 348.292 280.907 350.834 278.686L354.171 282.414ZM326.76 245.531V237.362H350.755V245.531H326.76Z" fill="white"/>
  <path d="M386.75 294.232C381.135 294.232 376.156 293.016 371.812 290.583C367.522 288.098 364.158 284.74 361.722 280.51C359.285 276.227 358.066 271.415 358.066 266.074C358.066 260.205 359.444 255.049 362.198 250.607C364.953 246.113 368.528 242.596 372.925 240.058C377.374 237.52 382.115 236.251 387.147 236.251C394.616 236.251 400.442 238.551 404.627 243.152C408.812 247.752 410.904 253.78 410.904 261.236V264.409H373.322V257.587H398.032L395.887 260.839V256.318C395.887 252.352 395.013 249.233 393.265 246.959C391.57 244.685 389.187 243.548 386.114 243.548C383.042 243.548 380.446 244.87 378.328 247.514C376.209 250.105 375.15 254.124 375.15 259.57V262.188C375.15 268.057 376.738 272.79 379.917 276.386C383.148 279.981 387.439 281.779 392.788 281.779C395.702 281.779 398.324 281.25 400.654 280.193C403.038 279.135 405.342 277.337 407.567 274.799L411.54 278.606C409.156 283.736 405.793 287.622 401.449 290.266C397.105 292.91 392.206 294.232 386.75 294.232Z" fill="white"/>
  <path d="M417.253 293.279L416.855 287.41L424.801 285.189C424.854 284.608 424.933 283.074 425.04 280.589C425.198 278.05 425.331 275.354 425.437 272.499L425.596 262.901C425.596 260.469 425.489 258.301 425.278 256.397C425.119 254.44 424.854 252.299 424.483 249.972L416.379 248.227V242.358L438.785 236.488L442.281 238.709L441.725 248.862L442.122 248.941C444.506 244.235 446.942 241.036 449.432 239.344C451.975 237.599 454.596 236.726 457.298 236.726C459.576 236.726 461.589 237.387 463.337 238.709C465.138 239.978 466.038 242.014 466.038 244.817C466.038 247.566 465.084 249.761 463.178 251.4C461.324 252.986 459.125 253.779 456.583 253.779C454.517 253.779 452.637 253.409 450.942 252.669C449.3 251.929 447.525 250.58 445.618 248.624L449.432 248.941C446.731 250.686 444.453 253.436 442.599 257.19L442.758 267.184C442.811 271.943 442.89 275.935 442.996 279.161C443.102 282.387 443.208 284.396 443.314 285.189L454.437 287.172L454.12 293.279H417.253Z" fill="white"/>
</svg>