<svg width="512" height="512" viewBox="0 0 512 512" fill="none" xmlns="http://www.w3.org/2000/svg">
<rect width="512" height="512" rx="80" fill="#001971"/>
<path d="M87.9928 294.39C79.6236 294.39 72.2609 292.936 65.9042 290.027C59.6008 287.119 54.7011 282.916 51.2049 277.416C47.7093 271.864 45.9609 265.122 45.9609 257.19C45.9609 248.941 47.8945 241.855 51.761 235.933C55.6809 229.958 61.0311 225.384 67.811 222.211C74.5915 219.039 82.2717 217.452 90.8533 217.452C94.7727 217.452 98.6926 217.875 102.612 218.721C106.532 219.514 109.843 220.546 112.544 221.815L113.419 241.406L105.394 241.882L100.785 228.477C97.448 226.838 93.74 226.018 89.6611 226.018C82.5102 226.018 76.9749 228.53 73.055 233.554C69.1356 238.524 67.1754 245.372 67.1754 254.097C67.1754 260.601 68.2348 266.206 70.3535 270.912C72.5256 275.565 75.4123 279.161 79.0141 281.699C82.6165 284.237 86.6153 285.506 91.0118 285.506C93.3958 285.506 95.6736 285.216 97.8451 284.634C100.017 283.999 101.924 283.048 103.566 281.779L108.095 269.96L116.835 270.912L113.18 287.965C110.426 289.71 106.77 291.217 102.215 292.486C97.7128 293.756 92.972 294.39 87.9928 294.39Z" fill="white"/>
<path d="M154.499 294.231C148.566 294.231 143.322 293.041 138.767 290.662C134.212 288.23 130.636 284.898 128.041 280.668C125.498 276.385 124.227 271.467 124.227 265.915C124.227 259.622 125.684 254.281 128.597 249.893C131.51 245.451 135.297 242.067 139.959 239.74C144.673 237.413 149.705 236.25 155.055 236.25C160.723 236.25 165.729 237.466 170.072 239.899C174.416 242.278 177.806 245.609 180.243 249.893C182.679 254.176 183.898 259.093 183.898 264.646C183.898 270.198 182.573 275.221 179.925 279.716C177.329 284.158 173.807 287.701 169.357 290.345C164.908 292.935 159.955 294.231 154.499 294.231ZM155.77 285.982C158.896 285.982 161.306 284.475 163.001 281.461C164.696 278.447 165.543 274.216 165.543 268.77C165.543 261.42 164.378 255.471 162.047 250.924C159.77 246.376 156.75 244.102 152.989 244.102C149.917 244.102 147.454 245.715 145.6 248.941C143.799 252.113 142.899 256.502 142.899 262.108C142.899 268.929 144.117 274.613 146.554 279.161C149.043 283.708 152.115 285.982 155.77 285.982Z" fill="white"/>
<path d="M212.338 294.231C208.365 294.231 204.948 293.411 202.088 291.772C199.281 290.08 197.109 288.044 195.573 285.665C194.089 283.232 193.348 280.959 193.348 278.843C193.348 272.657 197.268 268.426 205.107 266.153L225.13 260.363V256C225.13 253.303 223.885 250.897 221.395 248.782C218.959 246.614 216.204 245.53 213.132 245.53C211.755 245.53 210.775 245.874 210.192 246.561C209.662 247.196 209.345 248.359 209.239 250.051L208.603 258.062C204.313 258.961 200.764 258.829 197.956 257.666C195.202 256.502 193.825 254.572 193.825 251.876C193.825 250.183 194.672 248.491 196.367 246.799C198.115 245.054 200.287 243.441 202.882 241.961C205.478 240.427 208.1 239.158 210.748 238.154C213.45 237.149 215.754 236.514 217.661 236.25C225.342 236.25 231.407 237.969 235.856 241.406C240.359 244.843 242.637 249.496 242.689 255.366L242.292 272.736C242.292 277.178 242.61 280.112 243.245 281.54L251.668 283.047V288.679L243.166 292.248C239.988 293.57 237.286 294.231 235.062 294.231C231.725 294.231 229.368 292.539 227.99 289.154L225.686 283.285L228.388 283.761C222.985 290.741 217.635 294.231 212.338 294.231ZM219.091 282.571C221.369 282.571 223.435 281.672 225.289 279.874V267.58L217.105 269.008C213.132 269.537 211.146 271.494 211.146 274.878C211.146 276.834 211.94 278.605 213.529 280.192C215.119 281.778 216.972 282.571 219.091 282.571Z" fill="white"/>
<path d="M277.575 294.231C273.92 294.231 270.318 293.834 266.769 293.041C263.273 292.248 260.307 291.217 257.87 289.948L257.234 274.878H265.736L268.437 284.078C271.616 285.982 274.953 286.934 278.449 286.934C280.991 286.934 282.925 286.432 284.249 285.427C285.573 284.369 286.236 282.994 286.236 281.302C286.236 279.399 285.494 277.813 284.011 276.543C282.581 275.221 279.562 273.688 274.953 271.943C268.756 269.669 264.412 267.184 261.922 264.487C259.433 261.737 258.188 258.3 258.188 254.176C258.188 248.941 260.545 244.658 265.259 241.326C270.027 237.942 276.224 236.25 283.852 236.25C286.66 236.25 289.467 236.514 292.274 237.043C295.082 237.572 297.412 238.259 299.266 239.105L300.696 254.017H292.353L289.573 244.896C288.725 244.42 287.666 244.023 286.394 243.706C285.176 243.389 284.038 243.23 282.978 243.23C280.489 243.23 278.475 243.785 276.94 244.896C275.403 246.006 274.635 247.46 274.635 249.258C274.635 251.267 275.562 252.96 277.416 254.334C279.323 255.656 282.766 257.322 287.745 259.331C293.307 261.552 297.28 263.985 299.663 266.628C302.047 269.272 303.239 272.498 303.239 276.305C303.239 281.699 300.856 286.035 296.088 289.313C291.374 292.592 285.203 294.231 277.575 294.231Z" fill="white"/>
<path d="M354.167 282.413C352.843 286.168 350.486 289.129 347.096 291.296C343.706 293.465 339.918 294.548 335.734 294.548C329.695 294.548 324.769 292.83 320.955 289.393C317.194 285.956 315.314 280.774 315.314 273.847L315.711 245.53H306.812V241.564L329.219 223.956H333.112L332.794 242.199L332.556 272.34C332.556 275.83 333.403 278.315 335.098 279.796C336.846 281.276 339.256 282.016 342.329 282.016C345.454 282.016 348.288 280.906 350.83 278.685L354.167 282.413ZM326.756 245.53V237.361H350.751V245.53H326.756Z" fill="white"/>
<path d="M386.746 294.231C381.131 294.231 376.152 293.015 371.809 290.582C367.518 288.097 364.154 284.739 361.718 280.509C359.281 276.226 358.062 271.414 358.062 266.073C358.062 260.204 359.44 255.048 362.194 250.606C364.949 246.112 368.524 242.595 372.921 240.057C377.37 237.519 382.111 236.25 387.143 236.25C394.612 236.25 400.439 238.55 404.623 243.151C408.808 247.751 410.9 253.779 410.9 261.235V264.408H373.318V257.586H398.028L395.884 260.838V256.317C395.884 252.351 395.009 249.232 393.261 246.958C391.566 244.684 389.183 243.547 386.11 243.547C383.038 243.547 380.442 244.869 378.324 247.513C376.205 250.104 375.146 254.123 375.146 259.569V262.187C375.146 268.056 376.734 272.789 379.913 276.385C383.144 279.98 387.435 281.778 392.784 281.778C395.698 281.778 398.32 281.249 400.65 280.192C403.034 279.134 405.338 277.336 407.563 274.798L411.536 278.605C409.153 283.735 405.789 287.621 401.445 290.265C397.101 292.909 392.202 294.231 386.746 294.231Z" fill="white"/>
<path d="M417.253 293.279L416.855 287.41L424.801 285.189C424.854 284.608 424.933 283.074 425.04 280.589C425.198 278.05 425.331 275.354 425.437 272.499L425.596 262.901C425.596 260.469 425.489 258.301 425.278 256.397C425.119 254.44 424.854 252.299 424.483 249.972L416.379 248.227V242.358L438.785 236.488L442.281 238.709L441.725 248.862L442.122 248.941C444.506 244.235 446.942 241.036 449.432 239.344C451.975 237.599 454.596 236.726 457.298 236.726C459.576 236.726 461.589 237.387 463.337 238.709C465.138 239.978 466.038 242.014 466.038 244.817C466.038 247.566 465.084 249.761 463.178 251.4C461.324 252.986 459.125 253.779 456.583 253.779C454.517 253.779 452.637 253.409 450.942 252.669C449.3 251.929 447.525 250.58 445.618 248.624L449.432 248.941C446.731 250.686 444.453 253.436 442.599 257.19L442.758 267.184C442.811 271.943 442.89 275.935 442.996 279.161C443.102 282.387 443.208 284.396 443.314 285.189L454.437 287.172L454.12 293.279H417.253Z" fill="white"/>
</svg>
