<svg width="1000" height="159" viewBox="0 0 1000 159" fill="none" xmlns="http://www.w3.org/2000/svg">
<path d="M158.647 79.3235C158.647 123.133 123.133 158.647 79.3235 158.647C35.5143 158.647 0 123.133 0 79.3235C0 35.5143 35.5143 0 79.3235 0C123.133 0 158.647 35.5143 158.647 79.3235Z" fill="#509BB3"/>
<path d="M154.133 105.765H4.51366C1.59055 97.4944 0 88.5947 0 79.3235C0 35.5143 35.5143 0 79.3235 0C123.133 0 158.647 35.5143 158.647 79.3235C158.647 88.5947 157.056 97.4944 154.133 105.765Z" fill="#4186B6"/>
<path d="M154.596 54.2296H4.05112C14.551 22.7188 44.2841 0 79.3235 0C114.363 0 144.096 22.7188 154.596 54.2296Z" fill="#3673AA"/>
<path d="M291.627 153.109C275.945 153.109 262.149 150.379 250.238 144.92C238.427 139.461 229.246 131.571 222.695 121.248C216.145 110.827 212.869 98.1717 212.869 83.2837C212.869 67.8001 216.492 54.5001 223.737 43.3837C231.082 32.1681 241.107 23.5826 253.811 17.6274C266.516 11.6722 280.907 8.69458 296.987 8.69458C304.331 8.69458 311.676 9.48861 319.021 11.0767C326.366 12.5655 332.569 14.5009 337.631 16.883L339.269 53.6565L324.232 54.5497L315.597 29.389C309.344 26.3121 302.396 24.7737 294.753 24.7737C281.354 24.7737 270.982 29.4882 263.637 38.9173C256.293 48.2471 252.62 61.1005 252.62 77.4773C252.62 89.6855 254.605 100.206 258.575 109.04C262.645 117.774 268.054 124.524 274.803 129.288C281.553 134.052 289.046 136.434 297.284 136.434C301.751 136.434 306.019 135.888 310.088 134.796C314.157 133.605 317.731 131.819 320.807 129.437L329.294 107.253L345.67 109.04L338.822 141.049C333.661 144.325 326.812 147.153 318.276 149.535C309.84 151.918 300.957 153.109 291.627 153.109Z" fill="black"/>
<path d="M416.24 152.811C405.123 152.811 395.297 150.578 386.761 146.111C378.226 141.546 371.526 135.293 366.663 127.352C361.898 119.313 359.516 110.082 359.516 99.6605C359.516 87.8493 362.246 77.8247 367.705 69.5867C373.164 61.2494 380.26 54.8971 388.995 50.53C397.828 46.1628 407.257 43.9792 417.282 43.9792C427.902 43.9792 437.282 46.2621 445.42 50.8277C453.559 55.2942 459.911 61.5471 464.477 69.5867C469.043 77.6262 471.326 86.8568 471.326 97.2784C471.326 107.7 468.844 117.129 463.882 125.566C459.018 133.903 452.418 140.553 444.08 145.516C435.743 150.379 426.463 152.811 416.24 152.811ZM418.622 137.327C424.478 137.327 428.994 134.499 432.17 128.841C435.346 123.184 436.934 115.243 436.934 105.02C436.934 91.224 434.751 80.0579 430.383 71.5221C426.116 62.9863 420.458 58.7184 413.411 58.7184C407.654 58.7184 403.039 61.7456 399.565 67.8001C396.191 73.7553 394.503 81.9934 394.503 92.5143C394.503 105.318 396.786 115.988 401.352 124.524C406.017 133.059 411.773 137.327 418.622 137.327Z" fill="black"/>
<path d="M524.625 152.811C517.181 152.811 510.779 151.272 505.419 148.196C500.159 145.019 496.089 141.198 493.211 136.732C490.432 132.166 489.042 127.898 489.042 123.928C489.042 112.315 496.387 104.375 511.077 100.107L548.595 89.2389V81.0505C548.595 75.9885 546.262 71.4725 541.597 67.5023C537.031 63.4329 531.87 61.3982 526.114 61.3982C523.533 61.3982 521.697 62.0434 520.605 63.3337C519.612 64.5247 519.017 66.7083 518.818 69.8844L517.627 84.9214C509.588 86.6087 502.938 86.3605 497.677 84.177C492.516 81.9934 489.936 78.3706 489.936 73.3087C489.936 70.1326 491.524 66.9564 494.7 63.7803C497.975 60.505 502.045 57.4777 506.908 54.6986C511.771 51.8203 516.684 49.4382 521.647 47.5524C526.709 45.6666 531.027 44.4755 534.6 43.9792C548.992 43.9792 560.356 47.205 568.693 53.6565C577.13 60.108 581.398 68.8423 581.497 79.8594L580.753 112.464C580.753 120.802 581.348 126.31 582.539 128.99L598.321 131.819V142.389L582.39 149.089C576.435 151.57 571.373 152.811 567.205 152.811C560.952 152.811 556.535 149.635 553.954 143.282L549.637 132.265L554.699 133.159C544.575 146.26 534.55 152.811 524.625 152.811ZM537.28 130.925C541.547 130.925 545.418 129.238 548.892 125.863V102.787L533.558 105.467C526.114 106.459 522.392 110.132 522.392 116.484C522.392 120.156 523.88 123.481 526.858 126.459C529.836 129.437 533.309 130.925 537.28 130.925Z" fill="black"/>
<path d="M646.856 152.811C640.007 152.811 633.258 152.066 626.608 150.578C620.057 149.089 614.499 147.153 609.933 144.771L608.742 116.484H624.672L629.734 133.754C635.69 137.327 641.943 139.114 648.493 139.114C653.257 139.114 656.88 138.171 659.362 136.285C661.843 134.3 663.084 131.719 663.084 128.543C663.084 124.97 661.694 121.993 658.915 119.61C656.235 117.129 650.578 114.251 641.943 110.975C630.33 106.708 622.191 102.043 617.526 96.9807C612.861 91.8195 610.529 85.368 610.529 77.6262C610.529 67.8001 614.946 59.7606 623.779 53.5076C632.712 47.1554 644.325 43.9792 658.617 43.9792C663.878 43.9792 669.138 44.4755 674.398 45.468C679.659 46.4606 684.026 47.7509 687.5 49.3389L690.18 77.3285H674.547L669.337 60.2072C667.748 59.3139 665.763 58.5695 663.381 57.974C661.098 57.3785 658.965 57.0807 656.979 57.0807C652.315 57.0807 648.543 58.1229 645.665 60.2072C642.786 62.2915 641.347 65.021 641.347 68.3956C641.347 72.1673 643.084 75.3434 646.558 77.924C650.131 80.4053 656.582 83.5318 665.912 87.3034C676.334 91.4721 683.778 96.0378 688.244 101C692.711 105.963 694.944 112.018 694.944 119.164C694.944 129.288 690.478 137.427 681.545 143.58C672.711 149.734 661.148 152.811 646.856 152.811Z" fill="black"/>
<path d="M790.376 130.628C787.895 137.675 783.478 143.233 777.126 147.302C770.774 151.372 763.677 153.406 755.836 153.406C744.521 153.406 735.291 150.181 728.144 143.729C721.097 137.278 717.574 127.551 717.574 114.549L718.318 61.3982H701.644V53.9542L743.628 20.9028H750.923L750.327 55.1453L749.881 111.72C749.881 118.271 751.469 122.935 754.645 125.715C757.92 128.494 762.436 129.883 768.193 129.883C774.049 129.883 779.359 127.799 784.123 123.63L790.376 130.628ZM739.013 61.3982V46.0636H783.974V61.3982H739.013Z" fill="black"/>
<path d="M851.417 152.811C840.896 152.811 831.567 150.528 823.428 145.962C815.388 141.297 809.086 134.995 804.52 127.055C799.954 119.015 797.671 109.983 797.671 99.9583C797.671 88.9411 800.252 79.2639 805.413 70.9266C810.574 62.49 817.274 55.8897 825.512 51.1255C833.849 46.3613 842.733 43.9792 852.162 43.9792C866.156 43.9792 877.074 48.2968 884.915 56.9318C892.756 65.5669 896.677 76.8818 896.677 90.8766V96.8318H826.256V84.0281H872.558L868.539 90.1322V81.646C868.539 74.202 866.901 68.346 863.625 64.0781C860.449 59.8102 855.983 57.6762 850.226 57.6762C844.47 57.6762 839.606 60.1576 835.636 65.1203C831.666 69.9837 829.681 77.527 829.681 87.7501V92.6631C829.681 103.68 832.658 112.563 838.614 119.313C844.668 126.062 852.708 129.437 862.732 129.437C868.191 129.437 873.104 128.444 877.471 126.459C881.938 124.474 886.255 121.099 890.424 116.335L897.868 123.481C893.402 133.109 887.099 140.404 878.96 145.367C870.821 150.329 861.64 152.811 851.417 152.811Z" fill="black"/>
<path d="M908.587 151.024L907.843 140.007L922.731 135.838C922.83 134.747 922.979 131.868 923.178 127.203C923.475 122.439 923.724 117.377 923.922 112.018L924.22 94.0031C924.22 89.4374 924.021 85.368 923.624 81.7949C923.327 78.1225 922.83 74.1027 922.135 69.7356L906.95 66.4602V55.443L948.934 44.4259L955.485 48.5945L954.443 67.6512L955.187 67.8001C959.653 58.9665 964.219 52.9617 968.884 49.7856C973.648 46.5102 978.561 44.8725 983.623 44.8725C987.891 44.8725 991.663 46.1132 994.938 48.5945C998.313 50.9766 1000 54.7979 1000 60.0583C1000 65.2195 998.213 69.3385 994.64 72.4154C991.166 75.393 987.047 76.8818 982.283 76.8818C978.412 76.8818 974.889 76.187 971.713 74.7975C968.636 73.4079 965.311 70.877 961.738 67.2046L968.884 67.8001C963.822 71.0755 959.554 76.2367 956.08 83.2837L956.378 102.043C956.477 110.975 956.626 118.469 956.825 124.524C957.023 130.578 957.222 134.35 957.42 135.838L978.263 139.56L977.668 151.024H908.587Z" fill="black"/>
</svg>
