<svg xmlns="http://www.w3.org/2000/svg" width="1000" height="185" viewBox="0 0 1000 185" fill="none">
  <path d="M101.05 183.871C81.1492 183.871 63.6416 180.412 48.5261 173.494C33.5375 166.577 21.8865 156.579 13.5731 143.499C5.26088 130.294 1.10352 114.258 1.10352 95.3935C1.10352 75.7739 5.70123 58.9211 14.8954 44.8353C24.2165 30.6237 36.9385 19.7448 53.0604 12.1989C69.1835 4.65289 87.4462 0.879883 107.852 0.879883C117.172 0.879883 126.493 1.88602 135.814 3.89832C145.135 5.78482 153.007 8.23721 159.431 11.2556L161.51 57.8522L142.427 58.984L131.469 27.1023C123.534 23.2035 114.716 21.2541 105.017 21.2541C88.0134 21.2541 74.851 27.228 65.5299 39.1758C56.2101 50.9978 51.5489 67.2846 51.5489 88.0361C51.5489 103.505 54.068 116.836 59.1061 128.03C64.271 139.097 71.1353 147.65 79.7 153.687C88.266 159.723 97.7748 162.741 108.229 162.741C113.898 162.741 119.314 162.05 124.478 160.666C129.642 159.157 134.177 156.894 138.081 153.875L148.851 125.766L169.633 128.03L160.942 168.589C154.393 172.74 145.701 176.324 134.869 179.342C124.163 182.362 112.89 183.871 101.05 183.871Z" fill="black"/>
  <path d="M259.188 183.493C245.08 183.493 232.61 180.664 221.778 175.003C210.947 169.219 202.444 161.296 196.273 151.233C190.226 141.047 187.203 129.35 187.203 116.145C187.203 101.179 190.668 88.4763 197.595 78.0377C204.523 67.4733 213.528 59.4242 224.613 53.8905C235.822 48.3567 247.788 45.5898 260.51 45.5898C273.987 45.5898 285.891 48.4826 296.218 54.2677C306.547 59.9273 314.608 67.8505 320.402 78.0377C326.197 88.2247 329.094 99.921 329.094 113.126C329.094 126.332 325.944 138.28 319.647 148.97C313.475 159.534 305.099 167.961 294.518 174.249C283.938 180.412 272.161 183.493 259.188 183.493ZM262.211 163.873C269.642 163.873 275.373 160.29 279.404 153.12C283.434 145.952 285.449 135.89 285.449 122.936C285.449 105.455 282.679 91.306 277.136 80.4901C271.721 69.6742 264.541 64.2662 255.598 64.2662C248.292 64.2662 242.435 68.1021 238.027 75.7739C233.745 83.3198 231.603 93.7585 231.603 107.09C231.603 123.314 234.5 136.834 240.294 147.65C246.215 158.465 253.519 163.873 262.211 163.873Z" fill="black"/>
  <path d="M396.732 183.493C387.286 183.493 379.161 181.543 372.359 177.645C365.684 173.62 360.519 168.778 356.867 163.119C353.34 157.333 351.576 151.925 351.576 146.895C351.576 132.18 360.897 122.119 379.539 116.711L427.151 102.939V92.5637C427.151 86.1496 424.19 80.4272 418.27 75.3965C412.476 70.2401 405.926 67.6619 398.622 67.6619C395.347 67.6619 393.017 68.4794 391.631 70.1144C390.371 71.6235 389.616 74.3904 389.363 78.4149L387.852 97.4687C377.65 99.6067 369.211 99.2922 362.534 96.5254C355.985 93.7585 352.711 89.168 352.711 82.7539C352.711 78.7294 354.726 74.7048 358.756 70.6803C362.912 66.5301 368.077 62.6941 374.249 59.1726C380.42 55.5255 386.655 52.5071 392.953 50.1175C399.377 47.728 404.857 46.2187 409.391 45.5898C427.655 45.5898 442.076 49.6773 452.656 57.8522C463.363 66.027 468.779 77.0945 468.905 91.0545L467.961 132.369C467.961 142.934 468.716 149.913 470.227 153.309L490.255 156.894V170.287L470.038 178.777C462.481 181.921 456.057 183.493 450.768 183.493C442.833 183.493 437.227 179.469 433.952 171.419L428.473 157.459L434.897 158.592C422.05 175.192 409.327 183.493 396.732 183.493ZM412.792 155.761C418.207 155.761 423.119 153.623 427.528 149.347V120.107L408.069 123.502C398.622 124.759 393.899 129.414 393.899 137.462C393.899 142.115 395.787 146.328 399.566 150.102C403.345 153.875 407.753 155.761 412.792 155.761Z" fill="black"/>
  <path d="M551.849 183.493C543.157 183.493 534.592 182.549 526.153 180.664C517.84 178.777 510.786 176.324 504.992 173.305L503.48 137.462H523.696L530.12 159.346C537.678 163.873 545.614 166.137 553.926 166.137C559.972 166.137 564.569 164.942 567.719 162.553C570.868 160.037 572.442 156.767 572.442 152.743C572.442 148.215 570.678 144.443 567.152 141.423C563.751 138.28 556.572 134.633 545.614 130.482C530.876 125.075 520.548 119.164 514.628 112.749C508.708 106.209 505.748 98.0346 505.748 88.2247C505.748 75.7739 511.354 65.5868 522.563 57.6635C533.899 49.6145 548.637 45.5898 566.774 45.5898C573.45 45.5898 580.125 46.2187 586.8 47.4763C593.477 48.7341 599.019 50.3691 603.427 52.3812L606.828 87.8475H586.989L580.378 66.1527C578.361 65.0208 575.842 64.0776 572.819 63.323C569.922 62.5684 567.215 62.1911 564.695 62.1911C558.776 62.1911 553.989 63.5117 550.337 66.1527C546.683 68.7938 544.857 72.2524 544.857 76.5284C544.857 81.3076 547.062 85.3322 551.47 88.6021C556.005 91.7462 564.191 95.7079 576.031 100.487C589.257 105.769 598.704 111.555 604.371 117.842C610.04 124.131 612.874 131.803 612.874 140.858C612.874 153.687 607.206 164 595.87 171.796C584.659 179.594 569.986 183.493 551.849 183.493Z" fill="black"/>
  <path d="M733.979 155.385C730.831 164.314 725.225 171.357 717.164 176.513C709.103 181.67 700.097 184.247 690.147 184.247C675.787 184.247 664.074 180.161 655.004 171.986C646.062 163.811 641.591 151.486 641.591 135.011L642.535 67.6623H621.375V58.2298L674.654 16.3496H683.912L683.156 59.7391L682.589 131.426C682.589 139.727 684.605 145.637 688.635 149.16C692.791 152.681 698.522 154.441 705.828 154.441C713.26 154.441 719.998 151.8 726.044 146.518L733.979 155.385ZM668.798 67.6623V48.2314H725.855V67.6623H668.798Z" fill="black"/>
  <path d="M811.444 183.493C798.092 183.493 786.253 180.6 775.925 174.815C765.722 168.903 757.724 160.918 751.93 150.857C746.135 140.669 743.238 129.225 743.238 116.522C743.238 102.562 746.514 90.2999 753.063 79.7355C759.613 69.0453 768.115 60.6819 778.57 54.6451C789.149 48.6083 800.424 45.5898 812.389 45.5898C830.148 45.5898 844.003 51.0608 853.954 62.0024C863.904 72.9441 868.88 87.2815 868.88 105.015V112.561H779.514V96.3367H838.273L833.172 104.071V93.3183C833.172 83.8859 831.094 76.4656 826.936 71.0576C822.906 65.6497 817.238 62.9456 809.932 62.9456C802.628 62.9456 796.455 66.0899 791.417 72.3782C786.379 78.5408 783.86 88.099 783.86 101.053V107.278C783.86 121.238 787.638 132.494 795.196 141.047C802.879 149.599 813.082 153.875 825.803 153.875C832.731 153.875 838.965 152.617 844.507 150.102C850.176 147.587 855.655 143.31 860.945 137.274L870.392 146.328C864.724 158.528 856.726 167.772 846.397 174.061C836.068 180.348 824.417 183.493 811.444 183.493Z" fill="black"/>
  <path d="M883.993 181.229L883.049 167.269L901.943 161.987C902.068 160.604 902.257 156.956 902.51 151.045C902.887 145.008 903.203 138.594 903.454 131.804L903.832 108.977C903.832 103.191 903.58 98.0349 903.076 93.5074C902.699 88.854 902.068 83.7604 901.186 78.2268L881.916 74.0764V60.1163L935.195 46.1562L943.509 51.4384L942.186 75.5856L943.13 75.7742C948.798 64.581 954.592 56.9722 960.512 52.9477C966.558 48.7973 972.793 46.7221 979.217 46.7221C984.633 46.7221 989.42 48.2943 993.576 51.4384C997.859 54.4568 1000 59.2989 1000 65.9644C1000 72.5043 997.732 77.7236 993.198 81.6224C988.789 85.3954 983.562 87.2819 977.516 87.2819C972.604 87.2819 968.133 86.4015 964.103 84.6408C960.198 82.88 955.978 79.6731 951.444 75.0197L960.512 75.7742C954.089 79.9246 948.672 86.4645 944.264 95.3939L944.642 119.164C944.768 130.482 944.957 139.978 945.209 147.65C945.46 155.322 945.713 160.101 945.964 161.987L972.415 166.703L971.66 181.229H883.993Z" fill="black"/>
</svg>