<svg xmlns="http://www.w3.org/2000/svg" width="800" height="800" viewBox="0 0 800 800" fill="none">
<path d="M331.034 358.62H27.5859C12.3453 358.62 0 346.277 0 331.034V27.5859C0 12.3453 12.3453 0 27.5859 0H331.034C346.275 0 358.62 12.3453 358.62 27.5859V331.034C358.62 346.277 346.277 358.62 331.034 358.62Z" fill="#48A0DC"/>
<path d="M193.103 82.7594H55.1719C47.5579 82.7594 41.3782 76.5797 41.3782 68.9656C41.3782 61.3516 47.5579 55.1719 55.1719 55.1719H193.103C200.717 55.1719 206.897 61.3516 206.897 68.9656C206.897 76.5797 200.717 82.7594 193.103 82.7594Z" fill="white"/>
<path d="M248.277 137.931H96.5516C88.9375 137.931 82.7578 131.752 82.7578 124.137C82.7578 116.523 88.9375 110.344 96.5516 110.344H248.275C255.889 110.344 262.069 116.523 262.069 124.137C262.069 131.752 255.889 137.931 248.277 137.931Z" fill="white"/>
<path d="M193.103 193.103H55.1719C47.5579 193.103 41.3782 186.923 41.3782 179.309C41.3782 171.695 47.5579 165.516 55.1719 165.516H193.103C200.717 165.516 206.897 171.695 206.897 179.309C206.897 186.923 200.717 193.103 193.103 193.103Z" fill="white"/>
<path d="M110.345 248.277H55.1719C47.5579 248.277 41.3782 242.097 41.3782 234.483C41.3782 226.869 47.5579 220.689 55.1719 220.689H110.344C117.958 220.689 124.138 226.869 124.138 234.483C124.138 242.097 117.959 248.277 110.345 248.277Z" fill="white"/>
<path d="M193.103 303.448H82.7594C75.1454 303.448 68.9657 297.269 68.9657 289.655C68.9657 282.041 75.1454 275.861 82.7594 275.861H193.105C200.719 275.861 206.898 282.041 206.898 289.655C206.897 297.269 200.717 303.448 193.103 303.448Z" fill="white"/>
<path d="M772.414 800H468.966C453.725 800 441.38 787.655 441.38 772.414V468.966C441.38 453.725 453.725 441.38 468.966 441.38H772.414C787.655 441.38 800 453.725 800 468.966V772.414C800 787.655 787.655 800 772.414 800Z" fill="#9CA1AD"/>
<path d="M634.483 524.137H496.552C488.938 524.137 482.758 517.958 482.758 510.344C482.758 502.73 488.938 496.55 496.552 496.55H634.483C642.097 496.55 648.277 502.73 648.277 510.344C648.277 517.958 642.097 524.137 634.483 524.137Z" fill="white"/>
<path d="M689.655 579.311H537.931C530.317 579.311 524.137 573.131 524.137 565.517C524.137 557.903 530.317 551.723 537.931 551.723H689.655C697.269 551.723 703.448 557.903 703.448 565.517C703.448 573.131 697.269 579.311 689.655 579.311Z" fill="white"/>
<path d="M634.483 634.483H496.552C488.938 634.483 482.758 628.303 482.758 620.689C482.758 613.075 488.938 606.895 496.552 606.895H634.483C642.097 606.895 648.277 613.075 648.277 620.689C648.277 628.303 642.097 634.483 634.483 634.483Z" fill="white"/>
<path d="M551.723 689.655H496.552C488.938 689.655 482.758 683.475 482.758 675.861C482.758 668.247 488.938 662.067 496.552 662.067H551.723C559.338 662.067 565.517 668.247 565.517 675.861C565.517 683.475 559.338 689.655 551.723 689.655Z" fill="white"/>
<path d="M634.483 744.828H524.138C516.523 744.828 510.344 738.648 510.344 731.034C510.344 723.42 516.523 717.241 524.138 717.241H634.483C642.097 717.241 648.277 723.42 648.277 731.034C648.277 738.648 642.097 744.828 634.483 744.828Z" fill="white"/>
<path d="M731.034 400C723.42 400 717.241 393.82 717.241 386.206C717.241 377.323 716.909 368.386 716.247 359.655C715.667 352.055 721.35 345.434 728.95 344.855C736.536 344.261 743.17 349.972 743.75 357.572C744.467 366.992 744.827 376.634 744.827 386.206C744.828 393.82 738.649 400 731.034 400Z" fill="#B0B6BB"/>
<path d="M696.694 250.075C691.645 250.075 686.777 247.289 684.348 242.475C679.825 233.455 674.748 224.558 669.286 216.047C665.175 209.633 667.038 201.109 673.438 196.984C679.838 192.873 688.375 194.722 692.5 201.15C698.486 210.461 704.045 220.198 709.011 230.088C712.431 236.888 709.673 245.191 702.873 248.611C700.888 249.606 698.777 250.075 696.694 250.075ZM723.094 325.067C716.748 325.067 711.039 320.667 709.617 314.213C707.438 304.227 704.763 294.309 701.672 284.75C699.313 277.509 703.3 269.73 710.541 267.384C717.823 265.025 725.575 269.013 727.906 276.253C731.286 286.667 734.195 297.453 736.583 308.336C738.197 315.77 733.48 323.122 726.045 324.75C725.053 324.97 724.059 325.067 723.094 325.067Z" fill="#B0B6BB"/>
<path d="M519.578 99.0297C518.172 99.0297 516.738 98.8094 515.33 98.3532C505.784 95.2641 495.867 92.5735 485.867 90.3938C478.419 88.7657 473.716 81.4141 475.33 73.9657C476.97 66.5313 484.281 61.8141 491.758 63.4422C502.627 65.8141 513.427 68.7391 523.827 72.1047C531.067 74.45 535.055 82.2282 532.695 89.4844C530.806 95.3063 525.399 99.0297 519.578 99.0297ZM591.413 132.92C588.861 132.92 586.281 132.217 583.978 130.727C575.524 125.306 566.641 120.23 557.564 115.664C550.764 112.244 548.019 103.953 551.453 97.1407C554.873 90.3407 563.136 87.5953 569.964 91.0297C579.895 96.0235 589.633 101.581 598.888 107.527C605.302 111.638 607.15 120.175 603.039 126.589C600.406 130.686 595.964 132.92 591.413 132.92ZM651.964 184.409C648.17 184.409 644.405 182.864 641.688 179.83C634.916 172.284 627.688 165.058 620.211 158.353C614.542 153.277 614.074 144.559 619.149 138.877C624.225 133.222 632.955 132.711 638.625 137.814C646.845 145.18 654.791 153.111 662.225 161.4C667.302 167.069 666.831 175.786 661.163 180.889C658.53 183.238 655.233 184.409 651.964 184.409Z" fill="#B0B6BB"/>
<path d="M441.4 83.7953C441.055 83.7953 440.697 83.7813 440.338 83.7547C431.606 83.0922 422.683 82.761 413.8 82.761C406.172 82.761 400.006 76.5813 400.006 68.9672C400.006 61.3531 406.172 55.1735 413.8 55.1735C423.372 55.1735 433 55.5328 442.434 56.25C450.02 56.8156 455.717 63.45 455.138 71.05C454.6 78.2922 448.545 83.7953 441.4 83.7953Z" fill="#B0B6BB"/>
<path d="M69.9891 455.18C62.8438 455.18 56.7891 449.677 56.2516 442.434C55.5344 433 55.175 423.372 55.175 413.8C55.175 406.172 61.3547 400.006 68.9688 400.006C76.5829 400.006 82.7625 406.172 82.7625 413.8C82.7625 422.683 83.0938 431.606 83.7563 440.338C84.336 447.938 78.6391 454.572 71.0532 455.138C70.6922 455.166 70.3344 455.18 69.9891 455.18Z" fill="#B0B6BB"/>
<path d="M85.2094 533.298C79.3891 533.298 73.9813 529.575 72.0922 523.753C68.7125 513.339 65.8032 502.553 63.4157 491.67C61.8016 484.222 66.5188 476.884 73.9532 475.256C81.3875 473.656 88.7391 478.345 90.3813 485.78C92.561 495.78 95.236 505.697 98.3266 515.242C100.686 522.497 96.6985 530.277 89.4578 532.622C88.0516 533.077 86.6172 533.298 85.2094 533.298ZM119.113 605.202C114.575 605.202 110.133 602.967 107.498 598.856C101.513 589.533 95.9532 579.794 90.9875 569.919C87.5672 563.105 90.325 554.816 97.125 551.395C103.925 547.989 112.214 550.733 115.648 557.533C120.172 566.553 125.248 575.436 130.711 583.961C134.822 590.361 132.959 598.898 126.559 603.009C124.258 604.498 121.678 605.202 119.113 605.202Z" fill="#B0B6BB"/>
<path d="M170.569 665.706C167.3 665.706 164.003 664.547 161.369 662.189C153.148 654.809 145.217 646.878 137.783 638.603C132.694 632.934 133.162 624.203 138.831 619.114C144.5 614.025 153.217 614.52 158.32 620.177C165.08 627.722 172.306 634.948 179.783 641.639C185.452 646.728 185.934 655.445 180.845 661.116C178.127 664.161 174.347 665.706 170.569 665.706ZM236.223 710.452C234.141 710.452 232.03 709.969 230.03 708.975C220.098 703.969 210.375 698.423 201.106 692.478C194.706 688.367 192.844 679.83 196.969 673.416C201.08 667.016 209.603 665.139 216.017 669.264C224.472 674.698 233.355 679.775 242.431 684.341C249.245 687.761 251.977 696.052 248.555 702.852C246.141 707.664 241.272 710.452 236.223 710.452ZM311.203 736.878C310.223 736.878 309.231 736.767 308.238 736.561C297.369 734.175 286.583 731.264 276.169 727.884C268.928 725.539 264.955 717.761 267.3 710.519C269.645 703.278 277.423 699.319 284.666 701.65C294.225 704.739 304.142 707.416 314.142 709.609C321.577 711.237 326.294 718.589 324.666 726.038C323.244 732.478 317.547 736.878 311.203 736.878Z" fill="#B0B6BB"/>
<path d="M386.206 744.828C376.634 744.828 366.992 744.469 357.572 743.752C349.972 743.172 344.275 736.552 344.855 728.952C345.434 721.352 351.931 715.586 359.655 716.248C368.386 716.911 377.324 717.242 386.206 717.242C393.82 717.242 400 723.422 400 731.036C400 738.65 393.82 744.828 386.206 744.828Z" fill="#B0B6BB"/>
</svg>