<svg width="26" height="30" viewBox="0 0 26 30" fill="none" xmlns="http://www.w3.org/2000/svg">
    <path d="M13 22.71L23.6476 25.3043V4.9081L13 7.50235V22.71Z" fill="#205B97"/>
    <path d="M23.6476 4.9081L25.6765 5.94245V24.2587L23.6476 25.2931V4.9081ZM13 22.71L2.35233 25.2987V4.9081L13 7.50235V22.71Z" fill="#5193CE"/>
    <path d="M2.35233 4.9081L0.323425 5.94804V24.2643L2.35233 25.2987V4.9081Z" fill="#205B97"/>
    <path d="M15.707 29.4472L19.7648 27.373V2.89533L15.707 0.821045L14.4656 14.4129L15.707 29.4472Z" fill="#5193CE"/>
    <path d="M10.293 29.4472L6.23514 27.373V2.89533L10.293 0.821045L11.5344 14.4129L10.293 29.4472Z" fill="#205B97"/>
    <path d="M10.293 0.821045H15.7562V29.3913H10.293V0.821045Z" fill="#2E73B7"/>
</svg>
