<svg viewBox="0 0 692 620" fill="none" xmlns="http://www.w3.org/2000/svg">
  <path d="M332.658 0.723389H331.884L324.147 2.27078C307.126 4.33396 290.492 9.10508 274.244 16.5841C257.997 24.0632 243.683 33.9922 231.304 46.3714C210.156 65.4558 195.456 88.9245 187.204 116.778C182.561 132.251 180.498 148.499 181.014 165.52C181.53 182.542 184.625 198.789 190.298 214.263C199.067 237.474 212.478 257.59 230.53 274.611L240.588 283.896L176.372 388.344C162.961 387.828 151.356 389.634 141.556 393.76C126.082 400.465 114.476 410.781 106.739 424.708C103.129 432.445 100.808 440.44 99.776 448.692C98.7445 456.945 99.2603 465.198 101.323 473.451C105.45 488.925 113.96 501.304 126.855 510.588C134.592 515.746 143.103 519.485 152.387 521.807C161.672 524.128 170.956 524.643 180.24 523.354C189.525 522.064 198.422 518.841 206.933 513.683C215.443 508.525 222.536 502.077 228.209 494.34C234.399 485.572 238.138 475.514 239.428 464.166C240.717 452.819 239.299 442.245 235.173 432.445C234.657 429.866 232.851 426.255 229.757 421.613L227.436 416.971L318.732 268.422C321.826 263.779 323.89 260.169 324.921 257.59L317.184 255.269C312.542 254.237 309.189 253.206 307.126 252.174C295.263 247.016 284.56 239.924 275.018 230.897C265.476 221.871 258.125 211.684 252.968 200.337C244.199 181.768 241.878 162.426 246.004 142.309C248.067 130.446 252.452 119.357 259.157 109.041C265.862 98.7247 273.857 89.9561 283.142 82.735C302.226 68.8085 323.374 61.8452 346.585 61.8452C360.511 61.3294 374.051 63.7795 387.204 69.1953C400.356 74.6112 411.833 82.4771 421.633 92.793C430.401 101.046 437.236 110.975 442.136 122.58C447.036 134.186 449.744 145.92 450.26 157.783C450.26 166.552 448.712 177.384 445.617 190.279L499.776 204.979L505.966 205.752C513.187 183.573 514.992 161.394 511.381 139.215C509.318 122.193 504.289 105.817 496.294 90.0851C488.3 74.3533 478.113 60.5558 465.733 48.6924C444.07 27.029 417.507 12.5867 386.043 5.36556C382.948 4.33396 378.306 3.30237 372.116 2.27078L361.285 0.723389H332.658ZM346.585 96.6615C337.816 96.6615 329.047 98.4668 320.279 102.077C311.51 105.688 303.645 110.975 296.681 117.938C289.718 124.901 284.689 133.025 281.594 142.309C277.468 152.625 276.436 163.973 278.499 176.352C280.047 185.636 283.657 194.405 289.331 202.658C295.005 210.91 302.226 217.358 310.995 222C323.374 229.737 337.816 233.09 354.322 232.058C355.869 234.121 357.158 236.184 358.19 238.248L444.844 386.023C446.391 389.118 447.939 391.439 449.486 392.986C463.412 379.576 478.499 370.42 494.747 365.52C510.995 360.62 527.758 359.718 545.037 362.812C562.316 365.907 577.403 372.612 590.298 382.928C606.804 395.823 618.022 411.684 623.954 430.511C629.886 449.337 630.015 468.293 624.341 487.377C620.214 501.819 612.864 514.714 602.291 526.062C591.717 537.409 579.209 545.92 564.766 551.594C548.777 558.299 531.626 560.491 513.316 558.17C495.005 555.849 478.628 549.531 464.186 539.215C462.123 537.667 458.77 535.088 454.128 531.478L450.26 526.836C448.196 528.383 445.36 530.962 441.749 534.573L405.385 570.162C417.249 582.026 430.659 591.955 445.617 599.95C460.576 607.945 476.307 613.489 492.813 616.584L509.834 619.679H540.008L561.672 615.81C594.683 609.105 623.051 593.631 646.778 569.389C658.126 558.041 667.539 545.017 675.018 530.317C682.497 515.617 687.526 500.272 690.105 484.282C692.684 465.714 692.168 447.274 688.557 428.963C684.947 410.652 678.499 394.018 669.215 379.06C659.931 364.102 648.583 350.949 635.173 339.602C621.762 328.254 607.062 319.228 591.072 312.522C573.535 305.301 555.353 301.175 536.527 300.143C517.7 299.112 499.26 300.917 481.207 305.559L468.055 309.427L405.385 203.431C412.091 193.631 416.217 184.089 417.764 174.805C420.343 158.299 416.991 142.825 407.706 128.383C399.454 115.488 388.106 106.462 373.664 101.304C364.895 98.2089 355.869 96.6615 346.585 96.6615ZM128.403 300.917C98.4866 307.622 72.6967 321.291 51.0333 341.923C26.7909 364.618 11.0591 391.697 3.83794 423.161L0.743164 441.729V470.356L2.29055 478.867C3.32215 485.572 4.35374 490.73 5.38533 494.34C8.9959 510.33 15.3144 525.546 24.3408 539.988C33.3673 554.431 44.3279 567.068 57.2229 577.899C83.0127 599.047 112.671 611.684 146.198 615.81C165.798 617.874 185.398 616.713 204.998 612.329C224.599 607.945 242.652 600.594 259.157 590.279C286.494 572.741 306.61 549.273 319.505 519.872C323.116 511.104 326.726 499.498 330.337 485.056C333.432 484.54 338.074 484.54 344.263 485.056L440.975 486.603C448.196 486.603 453.354 486.861 456.449 487.377C462.123 497.693 468.57 505.688 475.792 511.362C483.013 517.035 491.136 521.162 500.163 523.741C509.189 526.32 518.345 527.351 527.629 526.836C542.071 525.288 554.966 520.13 566.314 511.362C580.24 500.53 588.493 486.603 591.072 469.582C592.104 460.814 591.717 452.303 589.911 444.05C588.106 435.798 584.625 428.061 579.467 420.839C571.214 409.492 560.64 401.239 547.745 396.081C538.977 392.471 529.821 390.794 520.279 391.052C510.737 391.31 501.581 393.244 492.813 396.855C478.371 403.044 467.281 412.587 459.544 425.482L457.223 430.124C450.002 430.124 439.17 429.866 424.728 429.35L337.3 428.576C329.563 428.061 318.474 427.803 304.031 427.803L265.347 427.029L267.668 440.182C271.794 462.361 268.441 483.251 257.61 502.851C250.389 516.778 240.073 528.383 226.662 537.667C213.251 546.952 198.551 552.625 182.561 554.689C164.508 557.783 146.456 555.849 128.403 548.886C110.35 541.923 95.6497 530.962 84.3022 516.004C69.8599 497.951 62.8966 477.577 63.4124 454.882C63.9282 435.798 69.8599 418.003 81.2074 401.497C87.9127 391.697 96.1655 383.444 105.966 376.739C115.766 370.034 126.34 365.133 137.687 362.039L144.65 359.718L128.403 300.917Z" fill="black"/>
</svg>
